<svg id="Capa_1" data-name="Capa 1" xmlns="http://www.w3.org/2000/svg" xmlns:xlink="http://www.w3.org/1999/xlink" viewBox="0 0 247.89 367.85"><defs><style>.cls-1{fill:none;stroke:#000;stroke-linejoin:round;stroke-width:19px;}.cls-2{fill:url(#Degradado_sin_nombre_7);}.cls-3{fill:url(#Degradado_sin_nombre_4);}.cls-4{fill:url(#Degradado_sin_nombre_6);}.cls-5{fill:url(#Degradado_sin_nombre_26);}.cls-6{fill:url(#Degradado_sin_nombre_28);}.cls-7{fill:url(#Degradado_sin_nombre_26-2);}.cls-8{fill:url(#Degradado_sin_nombre_29);}.cls-9{fill:url(#Degradado_sin_nombre_7-2);}.cls-10{fill:url(#Degradado_sin_nombre_7-3);}</style><linearGradient id="Degradado_sin_nombre_7" x1="129.49" y1="292.53" x2="250.19" y2="292.53" gradientUnits="userSpaceOnUse"><stop offset="0" stop-color="#ff3c00"/><stop offset="0.23" stop-color="#ff4001"/><stop offset="0.44" stop-color="#fe4b05"/><stop offset="0.64" stop-color="#fc5d0b"/><stop offset="0.83" stop-color="#fa7714"/><stop offset="0.99" stop-color="#f7931e"/></linearGradient><linearGradient id="Degradado_sin_nombre_4" x1="99.15" y1="1183.84" x2="219.85" y2="1183.84" gradientTransform="matrix(1, 0, 0, -1, 0, 1293.09)" gradientUnits="userSpaceOnUse"><stop offset="0" stop-color="#ff3c00"/><stop offset="0.21" stop-color="#fe4804"/><stop offset="0.59" stop-color="#fb6910"/><stop offset="0.99" stop-color="#f7931e"/></linearGradient><linearGradient id="Degradado_sin_nombre_6" x1="133.6" y1="1046.51" x2="-8.31" y2="1128.44" gradientTransform="matrix(1, 0, 0, -1, 0, 1293.09)" gradientUnits="userSpaceOnUse"><stop offset="0" stop-color="#ff3c00"/><stop offset="0.99" stop-color="#f7931e"/></linearGradient><linearGradient id="Degradado_sin_nombre_26" x1="319.03" y1="275.91" x2="394.73" y2="340.38" gradientTransform="matrix(0.71, 1.27, -0.71, 1.27, 116.63, -760.34)" gradientUnits="userSpaceOnUse"><stop offset="0.31"/><stop offset="0.74" stop-color="#fe4202" stop-opacity="0"/></linearGradient><linearGradient id="Degradado_sin_nombre_28" x1="-60.21" y1="-113.93" x2="-161.52" y2="-209.51" gradientTransform="matrix(0.71, 0.43, -0.71, 0.43, 141.18, 258.96)" gradientUnits="userSpaceOnUse"><stop offset="0.22"/><stop offset="0.79" stop-color="#fe4202" stop-opacity="0"/></linearGradient><linearGradient id="Degradado_sin_nombre_26-2" x1="220.28" y1="370.3" x2="295.98" y2="434.77" gradientTransform="matrix(0.7, 1.26, -0.7, 1.26, 155.74, -651.42)" xlink:href="#Degradado_sin_nombre_26"/><linearGradient id="Degradado_sin_nombre_29" x1="147.1" y1="285.89" x2="45.79" y2="190.31" gradientTransform="matrix(0.71, 0.64, -0.71, 0.64, 202.29, 50.22)" gradientUnits="userSpaceOnUse"><stop offset="0.38"/><stop offset="0.75" stop-color="#fe4202" stop-opacity="0"/></linearGradient><linearGradient id="Degradado_sin_nombre_7-2" x1="222.37" y1="142.74" x2="96.63" y2="268.48" xlink:href="#Degradado_sin_nombre_7"/><linearGradient id="Degradado_sin_nombre_7-3" x1="2.3" y1="94.53" x2="152.31" y2="94.53" xlink:href="#Degradado_sin_nombre_7"/></defs><path class="cls-1" d="M103.21,277.35" transform="translate(-2.3 -2.24)"/><path class="cls-2" d="M141.66,370.09h0a41.54,41.54,0,0,1,0-58.76L238,215h0a41.56,41.56,0,0,1,0,58.76Z" transform="translate(-2.3 -2.24)"/><path class="cls-3" d="M111.32,31.69h0a41.54,41.54,0,0,0,0,58.76l96.36,96.36h0a41.54,41.54,0,0,0,0-58.76Z" transform="translate(-2.3 -2.24)"/><path class="cls-4" d="M14.46,128.05h0a41.56,41.56,0,0,0,0,58.76l96.37,96.36h0a41.55,41.55,0,0,0,0-58.75Z" transform="translate(-2.3 -2.24)"/><rect class="cls-5" x="130.89" y="64.28" width="42.05" height="75.47" transform="translate(-29.94 135.06) rotate(-45)"/><rect class="cls-6" x="155.43" y="103.43" width="42.05" height="46.27" transform="translate(-40.11 159.6) rotate(-45)"/><rect class="cls-7" x="34.92" y="161.23" width="41.54" height="74.88" transform="translate(-126.46 95.32) rotate(-45)"/><rect class="cls-8" x="80.43" y="209.78" width="42.05" height="68.57" transform="translate(-145.16 140.98) rotate(-45)"/><path class="cls-9" d="M111.32,283.17h0a41.53,41.53,0,0,1,0-58.75l96.36-96.37h0a41.54,41.54,0,0,1,0,58.76Z" transform="translate(-2.3 -2.24)"/><path class="cls-10" d="M14.46,186.81h0a41.56,41.56,0,0,1,0-58.76L140.21,2.24h0a41.48,41.48,0,0,1,0,58.58Z" transform="translate(-2.3 -2.24)"/></svg>